<svg xmlns="http://www.w3.org/2000/svg" enable-background="new 0 0 64 64" viewBox="0 0 64 64"><path fill="#384da0" d="M45.01,47.28h-6.15c-0.28-0.51-0.66-0.95-1.13-1.28v-2.28c1.74-0.74,3.36-1.81,4.77-3.19
		c2.76-2.71,4.41-6.36,4.67-10.17c1.91-0.26,3.41-2.11,3.41-4.37c0-1.12-0.37-2.17-1.02-2.98c0.2-2.98,0.11-5.79-0.27-8.36
		c-0.26-1.81-0.71-3.35-1.38-4.7c-2.8-5.61-8.24-8.32-15.76-7.85l-2.89-1.89c-0.31-0.25-0.72-0.28-1.05-0.09
		c-0.33,0.2-0.51,0.57-0.45,0.95l0.12,0.78l-1.75-0.7c-0.28-0.12-0.58-0.06-0.81,0.14c-0.23,0.2-0.32,0.5-0.25,0.8l0.32,1.27
		c-3.55,0.53-6.51,2.52-8.59,5.78c-1.59,2.5-2.42,5.5-2.42,8.67v5.32c-0.59,0.8-0.93,1.79-0.93,2.86c0,2.25,1.49,4.11,3.4,4.37
		c0.28,6.02,4.11,11.17,9.45,13.38v2.17c-0.49,0.34-0.9,0.82-1.19,1.38h-6.09c-5.72,0-10.37,4.65-10.37,10.37v5.86
		c0,0.28,0.22,0.49,0.49,0.49h45.76c0.28,0,0.49-0.22,0.49-0.49v-5.86C55.37,51.93,50.73,47.28,45.01,47.28z M38.11,47.99
		c0.19,0.39,0.29,0.84,0.29,1.3v6.45l-3.02-1.05c0,0-0.01,0-0.01-0.01l-3-1.04c2.98-0.19,5.36-2.67,5.36-5.7v-0.57
		C37.87,47.56,38.02,47.75,38.11,47.99z M32,52.67c-2.61,0-4.74-2.13-4.74-4.74v-3.82c1.41,0.47,2.89,0.73,4.44,0.76
		c0.1,0.01,0.19,0.01,0.29,0.01c1.63,0,3.23-0.29,4.75-0.81v3.86C36.74,50.54,34.61,52.67,32,52.67z M49.57,25.99
		c0,1.68-1.01,3.08-2.37,3.38V22.6c0.55,0.12,1.05,0.41,1.47,0.88C49.25,24.13,49.57,25.03,49.57,25.99z M16.79,29.36
		c-1.34-0.28-2.37-1.68-2.37-3.38c0-0.91,0.29-1.75,0.82-2.4c0.42-0.52,0.96-0.86,1.56-0.98V29.36z M16.79,20.44v1.17
		c-0.51,0.08-1,0.28-1.45,0.57v-4.37c0-2.98,0.79-5.8,2.26-8.14c2.05-3.22,4.88-5.03,8.43-5.41c0.15-0.02,0.28-0.09,0.35-0.21
		c0.08-0.12,0.11-0.27,0.07-0.4l-0.37-1.45l2.2,0.89c0.17,0.06,0.35,0.03,0.49-0.08c0.14-0.11,0.21-0.29,0.18-0.46l-0.3-1.55
		l3.08,2.01c0.09,0.06,0.2,0.09,0.3,0.08c7.19-0.5,12.36,2.02,14.98,7.29c0.63,1.26,1.05,2.7,1.3,4.4c0.32,2.26,0.41,4.75,0.29,7.35
		c-0.42-0.28-0.89-0.45-1.39-0.52v-4.87c0-0.17-0.08-0.32-0.23-0.41c-0.14-0.09-0.32-0.1-0.47-0.03c-3.9,1.89-7.25-1.31-7.38-1.45
		c-0.16-0.15-0.4-0.18-0.59-0.07c-3.18,1.84-5.91,2.48-8.11,1.88c-2.02-0.54-2.84-1.94-2.87-2c-0.13-0.23-0.4-0.32-0.64-0.21
		c-2.26,1.06-3.89-1.57-3.96-1.67c-0.13-0.22-0.4-0.3-0.64-0.19c-1.78,0.87-2.8,1.58-3.62,2.54C17.47,16.55,16.79,18.43,16.79,20.44
		z M17.77,29.67v-9.23c0-1.77,0.59-3.43,1.66-4.67c0.67-0.78,1.51-1.39,2.92-2.11c0.84,1.13,2.54,2.54,4.58,1.84
		c0.42,0.56,1.43,1.61,3.19,2.1c2.4,0.66,5.29,0.05,8.59-1.8c0.92,0.77,3.98,2.94,7.5,1.67v4.55c0,0.01,0,0.01,0,0.02v7.29
		c0,3.91-1.6,7.73-4.42,10.49c-2.74,2.7-6.33,4.15-10.07,4.07C24.03,43.75,17.77,37.37,17.77,29.67z M25.6,49.19
		c0-0.42,0.08-0.84,0.24-1.22c0.12-0.28,0.27-0.52,0.44-0.74v0.7c0,3.03,2.37,5.51,5.36,5.7l-3,1.05c-0.01,0-0.01,0-0.01,0
		l-3.02,1.05V49.19z M29.49,63.02H9.61v-5.37c0-5.17,4.21-9.38,9.38-9.38h5.73c-0.07,0.31-0.11,0.61-0.11,0.93v7.24
		c0,0.16,0.08,0.31,0.21,0.4c0.09,0.06,0.19,0.09,0.29,0.09c0.06,0,0.11-0.01,0.16-0.03l3.41-1.18l1.55,1.56L29.49,63.02z
		 M30.48,63.02l0.74-5.86c0.02-0.16-0.03-0.31-0.14-0.41l-1.38-1.4l2.29-0.8l2.29,0.8l-1.37,1.4c-0.11,0.11-0.16,0.26-0.14,0.4
		l0.73,5.87H30.48z M54.39,63.02H34.51l-0.72-5.75l1.54-1.56l3.41,1.18c0.15,0.06,0.31,0.03,0.44-0.06c0.13-0.09,0.21-0.25,0.21-0.4
		v-7.14c0-0.35-0.06-0.7-0.14-1.02h5.76c5.17,0,9.38,4.21,9.38,9.38V63.02z"/><path fill="#fdf3f3" d="M31.64 53.63l-3 1.05c-.01 0-.01 0-.01 0l-3.02 1.05v-6.55c0-.42.08-.84.24-1.22.12-.28.27-.52.44-.74v.7C26.28 50.96 28.65 53.45 31.64 53.63zM38.4 49.29v6.45l-3.02-1.05c0 0-.01 0-.01-.01l-3-1.04c2.98-.19 5.36-2.67 5.36-5.7v-.57c.15.2.3.39.39.63C38.3 48.38 38.4 48.83 38.4 49.29z"/><path fill="#f1665c" d="M32.79,57.15l0.73,5.87h-3.03l0.74-5.86c0.02-0.16-0.03-0.31-0.14-0.41l-1.38-1.4l2.29-0.8l2.29,0.8l-1.37,1.4
		C32.82,56.85,32.77,57,32.79,57.15z"/><path fill="#59b4d7" d="M30.22 57.27l-.73 5.75H9.61v-5.37c0-5.17 4.21-9.38 9.38-9.38h5.73c-.07.31-.11.61-.11.93v7.24c0 .16.08.31.21.4.09.06.19.09.29.09.06 0 .11-.01.16-.03l3.41-1.18L30.22 57.27zM54.39 57.65v5.37H34.51l-.72-5.75 1.54-1.56 3.41 1.18c.15.06.31.03.44-.06.13-.09.21-.25.21-.4v-7.14c0-.35-.06-.7-.14-1.02h5.76C50.18 48.27 54.39 52.48 54.39 57.65z"/><path fill="#fbc2a1" d="M36.74,44.07v3.86c0,2.61-2.13,4.74-4.74,4.74s-4.74-2.13-4.74-4.74v-3.82c1.41,0.47,2.89,0.73,4.44,0.76
		c0.1,0.01,0.19,0.01,0.29,0.01C33.62,44.88,35.22,44.59,36.74,44.07z"/><path fill="#6c461e" d="M48.59,22.14c-0.42-0.28-0.89-0.45-1.39-0.52v-4.87c0-0.17-0.08-0.32-0.23-0.41
		c-0.14-0.09-0.32-0.1-0.47-0.03c-3.9,1.89-7.25-1.31-7.38-1.45c-0.16-0.15-0.4-0.18-0.59-0.07c-3.18,1.84-5.91,2.48-8.11,1.88
		c-2.02-0.54-2.84-1.94-2.87-2c-0.13-0.23-0.4-0.32-0.64-0.21c-2.26,1.06-3.89-1.57-3.96-1.67c-0.13-0.22-0.4-0.3-0.64-0.19
		c-1.78,0.87-2.8,1.58-3.62,2.54c-1.22,1.42-1.9,3.3-1.9,5.31v1.17c-0.51,0.08-1,0.28-1.45,0.57v-4.37c0-2.98,0.79-5.8,2.26-8.14
		c2.05-3.22,4.88-5.03,8.43-5.41c0.15-0.02,0.28-0.09,0.35-0.21c0.08-0.12,0.11-0.27,0.07-0.4l-0.37-1.45l2.2,0.89
		c0.17,0.06,0.35,0.03,0.49-0.08c0.14-0.11,0.21-0.29,0.18-0.46l-0.3-1.55l3.08,2.01c0.09,0.06,0.2,0.09,0.3,0.08
		c7.19-0.5,12.36,2.02,14.98,7.29c0.63,1.26,1.05,2.7,1.3,4.4C48.63,17.05,48.72,19.53,48.59,22.14z"/><path fill="#fbc2a1" d="M16.79 22.6v6.76c-1.34-.28-2.37-1.68-2.37-3.38 0-.91.29-1.75.82-2.4C15.66 23.06 16.2 22.73 16.79 22.6zM49.57 25.99c0 1.68-1.01 3.08-2.37 3.38V22.6c.55.12 1.05.41 1.47.88C49.25 24.13 49.57 25.03 49.57 25.99z"/><path fill="#384da0" d="M25.64 24.98c-1.07 0-1.95.87-1.95 1.94 0 1.07.88 1.95 1.95 1.95s1.94-.88 1.94-1.95C27.58 25.85 26.71 24.98 25.64 24.98zM25.64 27.89c-.53 0-.96-.43-.96-.96 0-.52.43-.95.96-.95s.95.43.95.95C26.59 27.45 26.17 27.89 25.64 27.89zM38.46 24.98c-1.07 0-1.95.87-1.95 1.94 0 1.07.88 1.95 1.95 1.95s1.95-.88 1.95-1.95C40.41 25.85 39.53 24.98 38.46 24.98zM38.46 27.89c-.53 0-.96-.43-.96-.96 0-.52.43-.95.96-.95.53 0 .96.43.96.95C39.42 27.45 38.99 27.89 38.46 27.89zM37.49 32.29H26.51c-.28 0-.49.22-.49.49v.2c0 1.9.92 3.7 2.44 4.82 1.02.76 2.25 1.15 3.53 1.15 1.3 0 2.52-.39 3.53-1.15 1.55-1.12 2.47-2.93 2.46-4.84v-.18C37.99 32.5 37.77 32.29 37.49 32.29zM29.42 37.24c.58-.84 1.54-1.35 2.57-1.35 1.05 0 2 .5 2.58 1.35C33.01 38.17 30.99 38.17 29.42 37.24zM35.37 36.66c-.76-1.09-2.01-1.75-3.38-1.75-1.36 0-2.6.66-3.37 1.75-.96-.88-1.54-2.08-1.61-3.39h9.98C36.91 34.57 36.32 35.78 35.37 36.66z"/><path fill="#fbc2a1" d="M38.71,15.81c-3.3,1.85-6.18,2.46-8.59,1.8c-1.76-0.48-2.77-1.54-3.19-2.1c-2.04,0.7-3.74-0.71-4.58-1.84
		c-1.42,0.72-2.25,1.33-2.92,2.11c-1.07,1.24-1.66,2.89-1.66,4.67v9.23c0,7.7,6.26,14.08,13.95,14.22
		c3.74,0.08,7.34-1.37,10.07-4.07c2.82-2.76,4.42-6.58,4.42-10.49v-7.29c0-0.01,0-0.01,0-0.02v-4.55
		C42.69,18.75,39.63,16.57,38.71,15.81z M22.4,23.78c-0.26,0-0.46-0.19-0.49-0.43c-0.03-0.28,0.17-0.51,0.44-0.54l5.29-0.54
		c0.27-0.03,0.51,0.17,0.54,0.43c0.03,0.28-0.17,0.51-0.44,0.54l-5.29,0.54H22.4z M23.69,26.92c0-1.07,0.88-1.94,1.95-1.94
		s1.94,0.87,1.94,1.94c0,1.07-0.87,1.95-1.94,1.95S23.69,27.99,23.69,26.92z M37.99,32.96c0.01,1.91-0.92,3.72-2.46,4.84
		c-1.01,0.76-2.24,1.15-3.53,1.15c-1.28,0-2.51-0.39-3.53-1.15c-1.53-1.12-2.44-2.92-2.44-4.82v-0.2c0-0.28,0.22-0.49,0.49-0.49
		h10.99c0.28,0,0.49,0.22,0.49,0.49V32.96z M38.46,28.87c-1.07,0-1.95-0.88-1.95-1.95c0-1.07,0.88-1.94,1.95-1.94
		s1.95,0.87,1.95,1.94C40.41,27.99,39.53,28.87,38.46,28.87z M41.59,23.94c-0.02,0-0.04,0-0.07-0.01l-5.27-0.75
		c-0.27-0.04-0.45-0.3-0.41-0.56c0.04-0.27,0.29-0.45,0.55-0.41l5.27,0.75c0.28,0.04,0.46,0.29,0.42,0.56
		C42.04,23.76,41.84,23.94,41.59,23.94z"/><path fill="#a74648" d="M36.99,33.27c-0.08,1.3-0.67,2.51-1.62,3.39c-0.76-1.09-2.01-1.75-3.38-1.75c-1.36,0-2.6,0.66-3.37,1.75
		c-0.96-0.88-1.54-2.08-1.61-3.39H36.99z"/><path fill="#d97547" d="M34.57,37.24c-1.56,0.94-3.58,0.94-5.15,0c0.58-0.84,1.54-1.35,2.57-1.35
		C33.04,35.89,33.99,36.39,34.57,37.24z"/><path fill="#384da0" d="M28.18 22.7c.03.28-.17.51-.44.54l-5.29.54H22.4c-.26 0-.46-.19-.49-.43-.03-.28.17-.51.44-.54l5.29-.54C27.9 22.23 28.15 22.43 28.18 22.7zM42.08 23.51c-.04.25-.25.42-.49.42-.02 0-.04 0-.07-.01l-5.27-.75c-.27-.04-.45-.3-.41-.56.04-.27.29-.45.55-.41l5.27.75C41.93 22.99 42.12 23.24 42.08 23.51z"/></svg>