<svg xmlns="http://www.w3.org/2000/svg" enable-background="new 0 0 64 64" viewBox="0 0 64 64"><circle cx="32" cy="32" r="32" fill="#4d94bc"/><path fill="#3254bf" d="M41.41,43.88h-5.09v-2.77c4.05-1.65,6.93-5.54,7.14-10.12c1.44-0.2,2.56-1.59,2.56-3.3
			c0-0.86-0.28-1.65-0.78-2.25c0.15-2.23,0.08-4.36-0.21-6.31c-0.19-1.37-0.53-2.53-1.04-3.55c-1.98-3.99-5.89-5.85-11.6-5.54V9.42
			c0-0.73-0.58-1.36-1.31-1.42c-0.38-0.03-0.76,0.1-1.05,0.36l-1.07,0.96l-0.82-0.6c-0.32-0.24-0.78-0.3-1.15-0.13
			c-0.35,0.14-0.6,0.44-0.69,0.8c-0.09,0.36,0.01,0.75,0.25,1.04l0.17,0.2c-2.58,0.46-4.72,1.94-6.23,4.33
			c-1.2,1.9-1.83,4.16-1.83,6.55v4.02c-0.45,0.6-0.7,1.35-0.7,2.16c0,1.71,1.12,3.1,2.57,3.3c0.21,4.58,3.09,8.47,7.14,10.12v2.77
			h-5.09c-4.14,0-7.52,3.37-7.52,7.52v4.24c0,0.21,0.16,0.37,0.37,0.37h33.12c0.21,0,0.37-0.16,0.37-0.37v-4.24
			C48.93,47.25,45.55,43.88,41.41,43.88z M45.29,27.69c0,1.28-0.78,2.34-1.8,2.55v-5.12c0.42,0.09,0.8,0.31,1.11,0.67
			C45.04,26.29,45.29,26.96,45.29,27.69z M20.51,30.24c-1.02-0.21-1.8-1.27-1.8-2.55c0-0.69,0.22-1.33,0.62-1.82
			c0.32-0.39,0.73-0.65,1.18-0.75V30.24z M20.51,21.87v2.52c-0.39,0.06-0.77,0.21-1.1,0.44v-3.31c0-2.25,0.59-4.38,1.71-6.15
			c1.54-2.43,3.68-3.8,6.36-4.09c0.14-0.01,0.26-0.1,0.31-0.23c0.04-0.13,0.02-0.27-0.07-0.38l-0.61-0.71
			c-0.1-0.11-0.13-0.25-0.1-0.39c0.04-0.13,0.13-0.24,0.26-0.3c0.15-0.07,0.3-0.04,0.42,0.05l1.07,0.78
			c0.14,0.1,0.33,0.09,0.46-0.03l1.29-1.16c0.14-0.12,0.32-0.18,0.5-0.17c0.35,0.03,0.63,0.32,0.63,0.68v1c0,0.1,0.04,0.2,0.12,0.27
			c0.07,0.07,0.18,0.1,0.27,0.1c5.71-0.4,9.39,1.27,11.28,5.11c0.47,0.95,0.79,2.03,0.97,3.32c0.25,1.74,0.32,3.6,0.23,5.56
			c-0.32-0.21-0.68-0.35-1.06-0.4V20.7c0-0.13-0.07-0.24-0.17-0.31c-0.11-0.07-0.24-0.07-0.35-0.02c-2.95,1.43-5.48-0.99-5.58-1.09
			c-0.12-0.11-0.3-0.13-0.44-0.05c-2.4,1.4-4.47,1.88-6.13,1.43c-1.53-0.41-2.14-1.47-2.17-1.51c-0.09-0.17-0.3-0.24-0.48-0.16
			c-1.71,0.8-2.94-1.18-2.99-1.27c-0.07-0.1-0.18-0.18-0.32-0.18C22.46,17.54,20.51,19.49,20.51,21.87z M21.25,30.47v-8.6
			c0-1.91,1.51-3.49,3.4-3.59c0.59,0.86,1.92,2.04,3.52,1.49c0.32,0.42,1.08,1.22,2.41,1.59c1.81,0.49,3.99,0.04,6.48-1.37
			c0.69,0.58,3.01,2.22,5.67,1.27v3.45c0,0.01,0,0.01,0,0.01v5.74c0,5.93-4.82,10.74-10.74,10.74
			C26.07,41.22,21.25,36.4,21.25,30.47z M35.58,41.38v2.89c0,1.98-1.61,3.58-3.58,3.58c-1.97,0-3.58-1.6-3.58-3.6v-2.86
			c1.13,0.37,2.33,0.58,3.58,0.58C33.25,41.96,34.46,41.75,35.58,41.38z M27.7,44.61c0.18,2.22,2.04,3.97,4.3,3.97
			c2.26,0,4.11-1.74,4.3-3.97h1c-0.18,2.76-2.49,4.95-5.3,4.95c-2.81,0-5.12-2.19-5.31-4.95H27.7z M48.19,55.26h-5.08v-4.78
			c0-0.21-0.16-0.37-0.37-0.37c-0.2,0-0.37,0.16-0.37,0.37v4.78H21.63v-4.78c0-0.21-0.16-0.37-0.37-0.37
			c-0.21,0-0.37,0.16-0.37,0.37v4.78h-5.08v-3.87c0-3.74,3.04-6.78,6.78-6.78h3.37c0.19,3.18,2.83,5.69,6.05,5.69
			c3.22,0,5.85-2.52,6.04-5.69h3.37c3.74,0,6.78,3.04,6.78,6.78V55.26z"/><path fill="#bf7335" d="M44.54,24.79c-0.32-0.21-0.68-0.35-1.06-0.4V20.7c0-0.13-0.07-0.24-0.17-0.31
			c-0.11-0.07-0.24-0.07-0.35-0.02c-2.95,1.43-5.48-0.99-5.58-1.09c-0.12-0.11-0.3-0.13-0.44-0.05c-2.4,1.4-4.47,1.88-6.13,1.43
			c-1.53-0.41-2.14-1.47-2.17-1.51c-0.09-0.17-0.3-0.24-0.48-0.16c-1.71,0.8-2.94-1.18-2.99-1.27c-0.07-0.1-0.18-0.18-0.32-0.18
			c-2.38,0-4.33,1.95-4.33,4.33v2.52c-0.39,0.06-0.77,0.21-1.1,0.44v-3.31c0-2.25,0.59-4.38,1.71-6.15c1.54-2.43,3.68-3.8,6.36-4.09
			c0.14-0.01,0.26-0.1,0.31-0.23c0.04-0.13,0.02-0.27-0.07-0.38l-0.61-0.71c-0.1-0.11-0.13-0.25-0.1-0.39
			c0.04-0.13,0.13-0.24,0.26-0.3c0.15-0.07,0.3-0.04,0.42,0.05l1.07,0.78c0.14,0.1,0.33,0.09,0.46-0.03l1.29-1.16
			c0.14-0.12,0.32-0.18,0.5-0.17c0.35,0.03,0.63,0.32,0.63,0.68v1c0,0.1,0.04,0.2,0.12,0.27c0.07,0.07,0.18,0.1,0.27,0.1
			c5.71-0.4,9.39,1.27,11.28,5.11c0.47,0.95,0.79,2.03,0.97,3.32C44.56,20.96,44.64,22.83,44.54,24.79z"/><path fill="#59b4d7" d="M48.19,51.39v3.87h-5.08v-4.78c0-0.21-0.16-0.37-0.37-0.37c-0.2,0-0.37,0.16-0.37,0.37v4.78H21.63v-4.78
			c0-0.21-0.16-0.37-0.37-0.37c-0.21,0-0.37,0.16-0.37,0.37v4.78h-5.08v-3.87c0-3.74,3.04-6.78,6.78-6.78h3.37
			c0.19,3.18,2.83,5.69,6.05,5.69c3.22,0,5.85-2.52,6.04-5.69h3.37C45.15,44.61,48.19,47.66,48.19,51.39z"/><path fill="#fdf3f3" d="M37.31,44.61c-0.18,2.76-2.49,4.95-5.3,4.95c-2.81,0-5.12-2.19-5.31-4.95h1c0.18,2.22,2.04,3.97,4.3,3.97
			c2.26,0,4.11-1.74,4.3-3.97H37.31z"/><path fill="#fbc2a1" d="M35.58 41.38v2.89c0 1.98-1.61 3.58-3.58 3.58-1.97 0-3.58-1.6-3.58-3.6v-2.86c1.13.37 2.33.58 3.58.58C33.25 41.96 34.46 41.75 35.58 41.38zM20.51 25.13v5.12c-1.02-.21-1.8-1.27-1.8-2.55 0-.69.22-1.33.62-1.82C19.65 25.48 20.06 25.22 20.51 25.13zM45.29 27.69c0 1.28-.78 2.34-1.8 2.55v-5.12c.42.09.8.31 1.11.67C45.04 26.29 45.29 26.96 45.29 27.69zM37.08 20c-2.5 1.4-4.67 1.86-6.48 1.37-1.34-.37-2.1-1.17-2.41-1.59-1.6.55-2.93-.63-3.52-1.49-1.9.1-3.4 1.68-3.4 3.59v8.6c0 5.93 4.82 10.74 10.75 10.74 5.92 0 10.74-4.81 10.74-10.74v-5.74c0-.01 0-.01 0-.01v-3.45C40.08 22.22 37.77 20.57 37.08 20zM24.75 26.03c-.18 0-.35-.15-.36-.33-.02-.21.13-.38.32-.41l4-.41c.18-.01.38.13.41.33.01.2-.13.38-.33.41l-3.99.41C24.77 26.03 24.76 26.03 24.75 26.03zM25.73 28.4c0-.8.66-1.47 1.47-1.47.81 0 1.47.66 1.47 1.47 0 .81-.66 1.47-1.47 1.47C26.38 29.87 25.73 29.21 25.73 28.4zM36.85 33.17c.01 1.55-.73 3.01-1.99 3.92-.83.61-1.82.95-2.86.95-1.04 0-2.03-.32-2.86-.94-1.23-.91-1.97-2.37-1.98-3.91v-.16c0-.21.16-.37.37-.37h8.96c.21 0 .37.16.37.37V33.17zM36.88 29.87c-.81 0-1.47-.66-1.47-1.47 0-.8.66-1.47 1.47-1.47.8 0 1.47.66 1.47 1.47C38.35 29.21 37.69 29.87 36.88 29.87zM39.25 26.14c-.01 0-.03 0-.05-.01l-3.98-.57c-.2-.03-.34-.21-.31-.41.03-.21.21-.35.42-.32l3.97.57c.21.03.35.22.32.42C39.59 26.01 39.43 26.14 39.25 26.14z"/><path fill="#3254bf" d="M36.48,32.66h-8.96c-0.21,0-0.37,0.16-0.37,0.37v0.16c0.01,1.54,0.75,3.01,1.98,3.91
			c0.83,0.61,1.82,0.94,2.86,0.94c1.05,0,2.04-0.33,2.86-0.95c1.26-0.91,1.99-2.37,1.99-3.92v-0.14
			C36.85,32.82,36.69,32.66,36.48,32.66z M29.85,36.68c0.48-0.72,1.27-1.14,2.14-1.14c0.88,0,1.67,0.43,2.15,1.14
			C32.85,37.47,31.15,37.47,29.85,36.68z M34.74,36.23c-0.61-0.89-1.63-1.44-2.75-1.44c-1.11,0-2.13,0.55-2.74,1.45
			c-0.82-0.73-1.3-1.74-1.36-2.84h8.21C36.05,34.48,35.56,35.51,34.74,36.23z"/><path fill="#d97547" d="M34.15,36.67c-1.29,0.8-3,0.8-4.29,0.01c0.48-0.72,1.27-1.14,2.14-1.14C32.88,35.53,33.67,35.96,34.15,36.67
			z"/><path fill="#a74648" d="M36.11,33.4c-0.06,1.09-0.55,2.11-1.37,2.84c-0.61-0.89-1.63-1.44-2.75-1.44c-1.11,0-2.13,0.55-2.74,1.45
			c-0.82-0.73-1.3-1.74-1.36-2.84H36.11z"/><path fill="#3254bf" d="M27.2,26.93c-0.81,0-1.47,0.66-1.47,1.47c0,0.81,0.66,1.47,1.47,1.47c0.81,0,1.47-0.66,1.47-1.47
			C28.67,27.59,28.01,26.93,27.2,26.93z M27.2,29.13c-0.41,0-0.73-0.32-0.73-0.73c0-0.4,0.32-0.73,0.73-0.73
			c0.4,0,0.73,0.33,0.73,0.73C27.93,28.8,27.6,29.13,27.2,29.13z"/><circle cx="27.2" cy="28.4" r=".73" fill="#fdf3f3"/><path fill="#3254bf" d="M36.88,26.93c-0.81,0-1.47,0.66-1.47,1.47c0,0.81,0.66,1.47,1.47,1.47c0.8,0,1.47-0.66,1.47-1.47
			C38.35,27.59,37.69,26.93,36.88,26.93z M36.88,29.13c-0.41,0-0.73-0.32-0.73-0.73c0-0.4,0.32-0.73,0.73-0.73
			c0.4,0,0.73,0.33,0.73,0.73C37.62,28.8,37.28,29.13,36.88,29.13z"/><circle cx="36.88" cy="28.4" r=".73" fill="#fdf3f3"/><path fill="#3254bf" d="M29.12 25.21c.01.2-.13.38-.33.41l-3.99.41c-.01.01-.03.01-.04.01-.18 0-.35-.15-.36-.33-.02-.21.13-.38.32-.41l4-.41C28.9 24.86 29.09 25 29.12 25.21zM39.62 25.82c-.03.18-.18.32-.37.32-.01 0-.03 0-.05-.01l-3.98-.57c-.2-.03-.34-.21-.31-.41.03-.21.21-.35.42-.32l3.97.57C39.51 25.43 39.65 25.62 39.62 25.82z"/></svg>